<?xml version="1.0" encoding="UTF-8"?>
<svg width="38px" height="38px" viewBox="0 0 38 38" version="1.1" xmlns="http://www.w3.org/2000/svg" xmlns:xlink="http://www.w3.org/1999/xlink">
    <!-- Generator: Sketch 52.6 (67491) - http://www.bohemiancoding.com/sketch -->
    <title>logo-round</title>
    <desc>Created with Sketch.</desc>
    <g id="Color-Mockups" stroke="none" stroke-width="1" fill="none" fill-rule="evenodd">
        <g id="Exports" transform="translate(-363.000000, -22.000000)">
            <g id="logo-round" transform="translate(363.000000, 22.000000)">
                <circle id="Oval" fill="#0A4E8B" cx="19" cy="19" r="19"></circle>
                <g id="Group" transform="translate(5.000000, 12.000000)" fill="#FFFFFF">
                    <path d="M5.352,2.01142857 C6.54,0.845714286 7.848,0.129285714 9.456,0.165714286 C11.064,0.202142857 12.372,0.785 13.224,2.47285714 C13.5,2.13285714 13.68,1.84142857 13.908,1.61071429 C15.276,0.335714286 16.896,-0.101428571 18.708,0.311428571 C20.46,0.712142857 21.708,2.26642857 21.732,4.11214286 C21.756,6.55285714 21.708,8.99357143 21.744,11.4342857 C21.756,12.345 21.96,13.2557143 22.08,14.2514286 C20.856,14.5792857 19.596,14.8585714 18.3,14.4214286 C17.532,14.1542857 17.208,13.6685714 17.22,12.7335714 C17.256,10.475 17.328,8.20428571 17.352,5.94571429 C17.364,5.375 17.34,4.80428571 17.22,4.24571429 C16.992,3.21357143 16.164,2.78857143 15.228,3.23785714 C14.7,3.49285714 14.232,3.91785714 13.788,4.31857143 C13.656,4.44 13.644,4.75571429 13.644,4.97428571 C13.68,7.94928571 13.728,10.9242857 13.776,13.8992857 C13.776,14.0692857 13.776,14.2514286 13.776,14.4578571 C12.552,14.6885714 11.364,14.7007143 10.188,14.3728571 C9.312,14.13 9.06,13.6442857 9.072,12.6971429 C9.12,10.05 9.156,7.39071429 9.156,4.74357143 C9.156,4.37928571 8.988,3.97857143 8.796,3.65071429 C8.484,3.11642857 7.944,2.89785714 7.392,3.165 C6.756,3.48071429 6.192,3.93 5.628,4.36714286 C5.508,4.45214286 5.472,4.71928571 5.484,4.90142857 C5.544,7.94928571 5.616,10.9971429 5.664,14.0571429 C5.664,14.215 5.496,14.5064286 5.412,14.5064286 C4.332,14.4942857 3.24,14.5428571 2.172,14.385 C1.236,14.2514286 0.972,13.7657143 0.984,12.8064286 C1.02,10.3657143 1.116,7.925 1.08,5.48428571 C1.056,4.03928571 0.804,2.59428571 0.672,1.14928571 C0.66,0.991428571 0.744,0.712142857 0.84,0.687857143 C1.836,0.396428571 2.844,0.250714286 3.876,0.493571429 C4.644,0.651428571 5.112,1.16142857 5.352,2.01142857 Z" id="Path"></path>
                    <path d="M29.58,12.0414286 C29.58,13.5714286 28.344,14.8342857 26.856,14.8464286 C25.404,14.8585714 24.168,13.5835714 24.156,12.0778571 C24.144,10.5114286 25.38,9.24857143 26.904,9.24857143 C28.452,9.23642857 29.58,10.4142857 29.58,12.0414286 Z" id="Path"></path>
                </g>
            </g>
        </g>
    </g>
</svg>