<?xml version="1.0" encoding="UTF-8"?>
<svg width="15px" height="15px" viewBox="0 0 15 15" version="1.1" xmlns="http://www.w3.org/2000/svg" xmlns:xlink="http://www.w3.org/1999/xlink">
    <!-- Generator: Sketch 52.6 (67491) - http://www.bohemiancoding.com/sketch -->
    <title>dashboard-black</title>
    <desc>Created with Sketch.</desc>
    <g id="Color-Mockups" stroke="none" stroke-width="1" fill="none" fill-rule="evenodd">
        <g id="Exports" transform="translate(-382.000000, -77.000000)" fill="#000000" fill-rule="nonzero">
            <g id="dashboard-black" transform="translate(382.000000, 77.000000)">
                <path d="M12.3214353,0 L2.6785647,0 C1.19995982,0.00175781495 0.00175781495,1.19995982 0,2.6785647 L0,12.3214353 C0.00175781495,13.8000402 1.19995982,14.9982422 2.6785647,15 L12.3214353,15 C13.8000402,14.9982422 14.9982422,13.8000402 15,12.3214353 L15,2.6785647 C14.9982422,1.19995982 13.8000402,0.00175781495 12.3214353,0 Z M6.96430589,13.9285804 L2.6785647,13.9285804 C1.79096232,13.9285804 1.0714196,13.2090377 1.0714196,12.3214353 L1.0714196,2.6785647 C1.0714196,1.79096232 1.79096232,1.0714196 2.6785647,1.0714196 L6.96430589,1.0714196 L6.96430589,13.9285804 Z M13.9285804,12.3214353 C13.9285804,13.2090377 13.2090377,13.9285804 12.3214353,13.9285804 L8.0357255,13.9285804 L8.0357255,8.0357255 L13.9285804,8.0357255 L13.9285804,12.3214353 Z M13.9285804,6.96430589 L8.0357255,6.96430589 L8.0357255,1.0714196 L12.3214353,1.0714196 C13.2090377,1.0714196 13.9285804,1.79096232 13.9285804,2.6785647 L13.9285804,6.96430589 Z" id="Shape"></path>
            </g>
        </g>
    </g>
</svg>