<?xml version="1.0" encoding="UTF-8"?>
<svg width="15px" height="15px" viewBox="0 0 15 15" version="1.1" xmlns="http://www.w3.org/2000/svg" xmlns:xlink="http://www.w3.org/1999/xlink">
    <!-- Generator: Sketch 52.6 (67491) - http://www.bohemiancoding.com/sketch -->
    <title>logout-black</title>
    <desc>Created with Sketch.</desc>
    <g id="Color-Mockups" stroke="none" stroke-width="1" fill="none" fill-rule="evenodd">
        <g id="Exports" transform="translate(-385.000000, -230.000000)" fill="#000000">
            <g id="logout-black" transform="translate(385.000000, 230.000000)">
                <path d="M7.47509766,13.7043457 L1.86875977,13.7043457 C1.52490234,13.7043457 1.24584961,13.4252637 1.24584961,13.0814355 L1.24584961,1.86878906 C1.24584961,1.52493164 1.52493164,1.24587891 1.86875977,1.24587891 L7.47509766,1.24587891 C7.81957031,1.24587891 8.09800781,0.967441406 8.09800781,0.62296875 C8.09800781,0.278496094 7.81957031,0 7.47509766,0 L1.86875977,0 C0.838447266,0 0,0.838476563 0,1.86878906 L0,13.0814063 C0,14.1117187 0.838447266,14.950166 1.86875977,14.950166 L7.47509766,14.950166 C7.81957031,14.950166 8.09800781,14.6717285 8.09800781,14.3272559 C8.09800781,13.9827832 7.81957031,13.7043457 7.47509766,13.7043457 Z" id="Path"></path>
                <path d="M14.8309766,7.91688461 L11.0435937,4.17933578 C10.7994043,3.93763657 10.4044824,3.94077133 10.1627832,4.18557602 C9.92108398,4.43038071 9.92357422,4.82468735 10.1690234,5.06638657 L12.8756152,7.73747055 L5.62291016,7.73747055 C5.2784375,7.73747055 5,8.01590805 5,8.36038071 C5,8.70485336 5.2784375,8.98332016 5.62291016,8.98332016 L12.8756152,8.98332016 L10.1690234,11.6544041 C9.92360352,11.8961034 9.92172852,12.29041 10.1627832,12.5352147 C10.2848633,12.6585545 10.4455859,12.7208397 10.6063086,12.7208397 C10.764541,12.7208397 10.9227441,12.6610448 11.0435937,12.5414256 L14.8309766,8.8038768 C14.9493359,8.68677719 15.0166016,8.527285 15.0166016,8.36035141 C15.0166016,8.19347641 14.9499512,8.03462875 14.8309766,7.91688461 Z" id="Path"></path>
            </g>
        </g>
    </g>
</svg>