<?xml version="1.0" encoding="UTF-8"?>
<svg width="17px" height="13px" viewBox="0 0 17 13" version="1.1" xmlns="http://www.w3.org/2000/svg" xmlns:xlink="http://www.w3.org/1999/xlink">
    <!-- Generator: Sketch 52.6 (67491) - http://www.bohemiancoding.com/sketch -->
    <title>saved-black</title>
    <desc>Created with Sketch.</desc>
    <g id="Color-Mockups" stroke="none" stroke-width="1" fill="none" fill-rule="evenodd">
        <g id="Exports" transform="translate(-384.000000, -172.000000)" fill="#000000" fill-rule="nonzero" stroke="#000000" stroke-width="0.3">
            <g id="saved-black" transform="translate(385.000000, 173.000000)">
                <path d="M13.7869458,1.34236617 L8.37746305,1.34236617 L7.29987685,0.0661962158 C7.2643165,0.0240164128 7.21189963,-0.000229276836 7.15671182,1.63449388e-06 L2.7955665,1.63449388e-06 C2.12561576,1.63449388e-06 1.58251232,0.543105083 1.58251232,1.21305582 L1.58251232,1.56711986 L1.21305419,1.56711986 C0.543719212,1.56711986 0.000846674877,2.10929966 0,2.77863464 L0,10.6296199 C0,11.2995706 0.543103448,11.842674 1.21305419,11.842674 L12.2044335,11.842674 C12.8743842,11.842674 13.4174877,11.2995706 13.4174877,10.6296199 L13.4174877,10.2755558 L13.7869458,10.2755558 C14.4568966,10.2755558 15,9.73245237 15,9.06250163 L15,2.55542035 C15,1.88546961 14.4568966,1.34236617 13.7869458,1.34236617 Z M13.0418719,9.91071592 L13.0418719,10.6373169 C13.0410252,11.1003326 12.6659098,11.4754481 12.2028941,11.4762947 L1.21305419,11.4762947 C0.750038485,11.4754481 0.37492303,11.1003326 0.374076355,10.6373169 L0.374076355,2.78633168 C0.37492303,2.32331598 0.750038485,1.94820053 1.21305419,1.94735385 L5.49876847,1.94735385 L6.57635468,3.2235238 C6.61191502,3.2657036 6.6643319,3.28994929 6.7195197,3.28971838 L12.2152094,3.28971838 C12.6710283,3.297223 13.037754,3.66668113 13.0418719,4.12253858 L13.0418719,9.91071592 Z M14.6243842,9.07173809 C14.6235376,9.53475379 14.2484221,9.90986925 13.7854064,9.91071592 L13.4159483,9.91071592 L13.4159483,4.12253858 C13.4159483,3.45258784 12.8728448,2.90948439 12.2028941,2.90948439 L6.79495074,2.90948439 L5.71736453,1.63331444 C5.68180419,1.59113464 5.62938732,1.56688895 5.57419951,1.56711986 L1.95812808,1.56711986 L1.95812808,1.21305582 C1.95897475,0.75004012 2.33409021,0.374924664 2.79710591,0.374077989 L7.07666256,0.374077989 L8.15424877,1.65024794 C8.18980911,1.69242774 8.24222599,1.71667343 8.29741379,1.71644252 L13.7931034,1.71644252 C14.2561192,1.7172892 14.6312346,2.09240465 14.6320813,2.55542035 L14.6243842,9.07173809 Z" id="Shape"></path>
            </g>
        </g>
    </g>
</svg>