<?xml version="1.0" encoding="UTF-8"?>
<svg width="17px" height="17px" viewBox="0 0 17 17" version="1.1" xmlns="http://www.w3.org/2000/svg" xmlns:xlink="http://www.w3.org/1999/xlink">
    <!-- Generator: Sketch 52.6 (67491) - http://www.bohemiancoding.com/sketch -->
    <title>settings-black</title>
    <desc>Created with Sketch.</desc>
    <g id="Color-Mockups" stroke="none" stroke-width="1" fill="none" fill-rule="evenodd">
        <g id="Exports" transform="translate(-384.000000, -133.000000)" fill="#000000" fill-rule="nonzero" stroke="#000000" stroke-width="0.3">
            <g id="settings-black" transform="translate(385.000000, 134.000000)">
                <path d="M14.0217391,5.86956522 L12.8008696,5.86956522 C12.6984783,5.53532609 12.5644565,5.2125 12.4017391,4.905 L13.2642391,4.0425 C13.4488043,3.85793478 13.5505435,3.61206522 13.5505435,3.35021739 C13.5505435,3.08869565 13.4488043,2.84282609 13.2642391,2.65826087 L12.341413,1.73543478 C11.9726087,1.36663043 11.3269565,1.36565217 10.9575,1.73543478 L10.095,2.59793478 C9.78782609,2.43521739 9.46467391,2.30152174 9.13043478,2.19880435 L9.13043478,0.97826087 C9.13043478,0.438913043 8.69152174,0 8.15217391,0 L6.84782609,0 C6.30847826,0 5.86956522,0.438913043 5.86956522,0.97826087 L5.86956522,2.19913043 C5.53532609,2.30184783 5.2125,2.43554348 4.905,2.59826087 L4.04217391,1.73576087 C3.66065217,1.35423913 3.03978261,1.35423913 2.65826087,1.73576087 L1.7351087,2.65858696 C1.35391304,3.0401087 1.35391304,3.66097826 1.7351087,4.0425 L2.5976087,4.90532609 C2.4348913,5.2125 2.30119565,5.53565217 2.19847826,5.8698913 L0.97826087,5.8698913 C0.438913043,5.8698913 0,6.30880435 0,6.84815217 L0,8.1525 C0,8.69152174 0.438913043,9.13043478 0.97826087,9.13043478 L2.19913043,9.13043478 C2.30184783,9.46467391 2.43554348,9.7875 2.59826087,10.095 L1.73576087,10.9578261 C1.35423913,11.3393478 1.35423913,11.9602174 1.73576087,12.3417391 L2.65858696,13.2648913 C3.0401087,13.646087 3.66097826,13.646087 4.0425,13.2648913 L4.90532609,12.4023913 C5.2125,12.5651087 5.53565217,12.6988043 5.8698913,12.8015217 L5.8698913,14.0217391 C5.8698913,14.561087 6.30880435,15 6.84815217,15 L8.1525,15 C8.69184783,15 9.13076087,14.561087 9.13076087,14.0217391 L9.13076087,12.8008696 C9.465,12.6981522 9.78815217,12.5644565 10.0953261,12.4017391 L10.9578261,13.2645652 C11.3276087,13.6340217 11.9732609,13.6333696 12.3417391,13.2645652 L13.2645652,12.3417391 C13.4491304,12.1571739 13.5508696,11.9113043 13.5508696,11.6497826 C13.5508696,11.3879348 13.4491304,11.1423913 13.2645652,10.9578261 L12.4020652,10.095 C12.5647826,9.78782609 12.6984783,9.46467391 12.8011957,9.13043478 L14.0217391,9.13043478 C14.561087,9.13043478 15,8.69152174 15,8.15217391 L15,6.84782609 C15,6.30847826 14.561087,5.86956522 14.0217391,5.86956522 Z M14.3478261,8.15217391 C14.3478261,8.33184783 14.2017391,8.47826087 14.0217391,8.47826087 L12.5543478,8.47826087 C12.4056522,8.47826087 12.2758696,8.57902174 12.2386957,8.72282609 C12.1232609,9.16793478 11.9475,9.59282609 11.7156522,9.98543478 C11.6403261,10.113587 11.6608696,10.2766304 11.7658696,10.3816304 L12.8028261,11.418913 C12.8641304,11.4802174 12.8980435,11.5620652 12.8980435,11.6497826 C12.8980435,11.7375 12.8641304,11.8193478 12.8028261,11.8806522 L11.88,12.8034783 C11.7573913,12.926087 11.5411957,12.926087 11.4182609,12.8034783 L10.3813043,11.7665217 C10.2763043,11.6611957 10.1132609,11.6409783 9.98478261,11.7163043 C9.59282609,11.9478261 9.16793478,12.123913 8.7225,12.2390217 C8.57902174,12.2758696 8.47826087,12.4056522 8.47826087,12.5543478 L8.47826087,14.0217391 C8.47826087,14.201413 8.33217391,14.3478261 8.15217391,14.3478261 L6.84782609,14.3478261 C6.66815217,14.3478261 6.52173913,14.201413 6.52173913,14.0217391 L6.52173913,12.5543478 C6.52173913,12.4056522 6.42097826,12.2758696 6.27717391,12.2386957 C5.83206522,12.123587 5.40717391,11.9478261 5.01456522,11.7159783 C4.96304348,11.6853261 4.90597826,11.6706522 4.84891304,11.6706522 C4.76445652,11.6706522 4.68097826,11.7032609 4.61804348,11.7661957 L3.58108696,12.8031522 C3.45358696,12.9303261 3.24684783,12.9303261 3.11934783,12.8031522 L2.19652174,11.8803261 C2.06902174,11.7528261 2.06902174,11.5457609 2.19652174,11.418587 L3.23347826,10.3816304 C3.33880435,10.2763043 3.35934783,10.1132609 3.28369565,9.98543478 C3.05217391,9.59282609 2.87608696,9.16826087 2.76097826,8.72282609 C2.72413043,8.57902174 2.59434783,8.47826087 2.44565217,8.47826087 L0.97826087,8.47826087 C0.798586957,8.47826087 0.652173913,8.33184783 0.652173913,8.15217391 L0.652173913,6.84782609 C0.652173913,6.66815217 0.798586957,6.52173913 0.97826087,6.52173913 L2.44565217,6.52173913 C2.59434783,6.52173913 2.72413043,6.42097826 2.76130435,6.27717391 C2.87641304,5.83206522 3.05217391,5.40717391 3.28402174,5.01456522 C3.35967391,4.88641304 3.33913043,4.72336957 3.23380435,4.61836957 L2.19684783,3.58141304 C2.06967391,3.45423913 2.06967391,3.24717391 2.19684783,3.11967391 L3.11967391,2.19684783 C3.24717391,2.06934783 3.45391304,2.06967391 3.58141304,2.19684783 L4.61836957,3.23380435 C4.72369565,3.33913043 4.88641304,3.36 5.01456522,3.28402174 C5.40717391,3.0525 5.83173913,2.87641304 6.27717391,2.76130435 C6.42097826,2.72413043 6.52173913,2.59434783 6.52173913,2.44565217 L6.52173913,0.97826087 C6.52173913,0.798586957 6.66815217,0.652173913 6.84782609,0.652173913 L8.15217391,0.652173913 C8.33217391,0.652173913 8.47826087,0.798586957 8.47826087,0.97826087 L8.47826087,2.44565217 C8.47826087,2.59434783 8.57902174,2.72413043 8.72282609,2.76130435 C9.16826087,2.87641304 9.59315217,3.0525 9.9851087,3.28402174 C10.113587,3.35967391 10.2766304,3.33945652 10.3816304,3.23380435 L11.418587,2.19684783 C11.5415217,2.07358696 11.7577174,2.07391304 11.8803261,2.19684783 L12.8031522,3.11967391 C12.8644565,3.18097826 12.8983696,3.26315217 12.8983696,3.35054348 C12.8983696,3.43793478 12.8644565,3.5201087 12.8031522,3.58141304 L11.7661957,4.61836957 C11.6611957,4.72369565 11.6403261,4.88673913 11.7159783,5.01456522 C11.9478261,5.40717391 12.123587,5.83173913 12.2390217,6.27717391 C12.2758696,6.42097826 12.4056522,6.52173913 12.5543478,6.52173913 L14.0217391,6.52173913 C14.2017391,6.52173913 14.3478261,6.66815217 14.3478261,6.84782609 L14.3478261,8.15217391 Z" id="Shape"></path>
                <path d="M7.5,4.56521739 C5.88195652,4.56521739 4.56521739,5.88195652 4.56521739,7.5 C4.56521739,9.11804348 5.88195652,10.4347826 7.5,10.4347826 C9.11836957,10.4347826 10.4347826,9.11804348 10.4347826,7.5 C10.4347826,5.88195652 9.11836957,4.56521739 7.5,4.56521739 Z M7.5,9.7826087 C6.24130435,9.7826087 5.2173913,8.75869565 5.2173913,7.5 C5.2173913,6.24130435 6.24130435,5.2173913 7.5,5.2173913 C8.75836957,5.2173913 9.7826087,6.24130435 9.7826087,7.5 C9.7826087,8.75869565 8.75836957,9.7826087 7.5,9.7826087 Z" id="Shape"></path>
            </g>
        </g>
    </g>
</svg>