<?xml version="1.0" encoding="UTF-8"?>
<svg width="15px" height="18px" viewBox="0 0 15 18" version="1.1" xmlns="http://www.w3.org/2000/svg" xmlns:xlink="http://www.w3.org/1999/xlink">
    <!-- Generator: Sketch 52.6 (67491) - http://www.bohemiancoding.com/sketch -->
    <title>support-black</title>
    <desc>Created with Sketch.</desc>
    <g id="Color-Mockups" stroke="none" stroke-width="1" fill="none" fill-rule="evenodd">
        <g id="Exports" transform="translate(-385.000000, -199.000000)" fill="#000000" fill-rule="nonzero">
            <g id="support-black" transform="translate(385.000000, 199.000000)">
                <path d="M13.3528455,5.85365854 C13.3528455,2.62077236 10.7320732,0 7.49918699,0 C4.26630081,0 1.64552846,2.62077236 1.64552846,5.85365854 C0.809756098,5.95772358 0.0195121951,6.50406504 0.0195121951,7.77235772 L0.0195121951,10.8292683 C0.0195121951,12.2601626 1.02113821,12.7804878 1.97073171,12.7804878 L2.91382114,12.7804878 C3.09341463,12.7804878 3.23902439,12.634878 3.23902439,12.4552846 L3.23902439,6.15934959 C3.23902439,5.9797561 3.09341463,5.83414634 2.91382114,5.83414634 L2.29593496,5.83414634 C2.29593496,2.9604878 4.62552846,0.630894309 7.49918699,0.630894309 C10.3728455,0.630894309 12.702439,2.9604878 12.702439,5.83414634 L12.0845528,5.83414634 C11.9049593,5.83414634 11.7593496,5.9797561 11.7593496,6.15934959 L11.7593496,12.4455285 C11.7593496,12.625122 11.9049593,12.7707317 12.0845528,12.7707317 L12.702439,12.7707317 C12.6113821,15.004878 11.5382114,15.5284553 9.39512195,15.6227642 L9.39512195,15.404878 C9.39512195,15.0456504 9.10394309,14.7544715 8.74471545,14.7544715 L6.69918699,14.7544715 C6.33995935,14.7544715 6.04878049,15.0456504 6.04878049,15.404878 L6.04878049,16.4617886 C6.04878049,16.8210163 6.33995935,17.1121951 6.69918699,17.1121951 L8.75121951,17.1121951 C9.11044715,17.1121951 9.40162602,16.8210163 9.40162602,16.4617886 L9.40162602,16.2731707 C11.4634146,16.1788618 13.2455285,15.7528455 13.3528455,12.7512195 C14.1886179,12.6471545 14.9788618,12.100813 14.9788618,10.8325203 L14.9788618,7.77560976 C14.9788618,6.50081301 14.1918699,5.95772358 13.3528455,5.85365854 Z M2.58861789,6.46178862 L2.58861789,12.1203252 L1.95447154,12.1203252 C1.47317073,12.1203252 0.653658537,11.9512195 0.653658537,10.8195122 L0.653658537,7.76260163 C0.653658537,6.64065041 1.46341463,6.46178862 1.95447154,6.46178862 L2.58861789,6.46178862 Z M8.75121951,15.9707317 L8.75121951,16.4650407 L6.69918699,16.4650407 L6.69918699,15.4081301 L8.75121951,15.4081301 L8.75121951,15.9707317 Z M14.3284553,10.8292683 C14.3284553,11.9512195 13.5186992,12.1300813 13.0276423,12.1300813 L12.4097561,12.1300813 L12.4097561,6.48455285 L13.0439024,6.48455285 C13.5252033,6.48455285 14.3447154,6.65365854 14.3447154,7.78536585 L14.3284553,10.8292683 Z" id="Shape"></path>
            </g>
        </g>
    </g>
</svg>